PathFileType	4	(X/Y/Z)	c:\Git\powerlifing_model_clean\simulations\HC835B\Session1\HC835B_OGW_0005\marker_experimental.trc
DataRate	CameraRate	NumFrames	NumMarkers	Units	OrigDataRate	OrigDataStartFrame	OrigNumFrames
240.000000	240.000000	4	38	mm	240.000000	313	418
Frame#	Time	RPSI			LPSI			RASI			LASI			RTH1			RTH2			RTH3			RTH4			RSK1			RSK2			RSK3			RSK4			RCAL1			RCAL2			RCAL3			RST			RPT			RTN			RFMB			RSMB			RVMB			RFMH			RSMH			RVMH			RPM			LTH1			LTH2			LTH3			LTH4			LSK1			LSK2			LSK3			LSK4			LCAL1			LCAL2			LCAL3			LFMH			LVMH			
		X1	Y1	Z1	X2	Y2	Z2	X3	Y3	Z3	X4	Y4	Z4	X5	Y5	Z5	X6	Y6	Z6	X7	Y7	Z7	X8	Y8	Z8	X9	Y9	Z9	X10	Y10	Z10	X11	Y11	Z11	X12	Y12	Z12	X13	Y13	Z13	X14	Y14	Z14	X15	Y15	Z15	X16	Y16	Z16	X17	Y17	Z17	X18	Y18	Z18	X19	Y19	Z19	X20	Y20	Z20	X21	Y21	Z21	X22	Y22	Z22	X23	Y23	Z23	X24	Y24	Z24	X25	Y25	Z25	X26	Y26	Z26	X27	Y27	Z27	X28	Y28	Z28	X29	Y29	Z29	X30	Y30	Z30	X31	Y31	Z31	X32	Y32	Z32	X33	Y33	Z33	X34	Y34	Z34	X35	Y35	Z35	X36	Y36	Z36	X37	Y37	Z37	X38	Y38	Z38	

314	1.304166666666667	429.0093383789064	1138.925170898438	-328.5415039062501	538.3406982421876	1133.581665039063	-334.3087768554688	378.3472900390626	1105.396728515625	-114.8457489013672	624.3665161132814	1096.755493164063	-130.5606384277344	312.8472290039063	822.275573730469	-154.6698913574219	328.0600585937501	818.747253417969	-95.03852844238283	330.7435913085938	745.2839355468751	-123.3667831420899	356.5484619140626	741.6490478515626	-71.06295013427736	392.982635498047	295.0209960937501	-186.9397277832032	391.9688415527345	280.7751159667969	-127.2153778076172	400.4912414550782	239.1471862792969	-171.3550720214844	413.1238098144532	226.4749450683594	-113.5763320922852	474.1815795898439	94.38179016113283	-227.5011749267579	503.5078735351564	56.40853118896486	-215.2207031250001	439.7842712402345	57.14178848266603	-226.1634979248047	510.6111755371095	73.81746673583986	-146.9739685058594	410.1362609863282	71.12474060058595	-169.6092834472657	491.8480224609376	96.16709899902347	-93.12282562255861	484.4983825683595	81.44834899902345	-60.80381774902345	435.7293090820314	105.5323257446289	-58.7803192138672	394.2310791015626	48.64816284179689	-126.6958465576172	480.350311279297	55.35488510131837	-6.488530158996584	425.5780334472657	72.11513519287111	1.408208131790161	370.0341186523438	45.84188079833985	-49.12700653076173	430.8823852539064	64.03931427001955	59.54062271118165	702.8522949218751	815.1290283203127	-166.2705383300782	714.1168823242189	819.844177246094	-106.6900634765625	712.6647338867189	740.9710083007814	-124.7533035278321	708.7271118164064	745.5542602539064	-64.1156692504883	659.2810058593751	431.1263427734376	-326.6123657226563	674.3832397460939	383.7434997558594	-307.4819030761719	657.2131347656251	381.7332458496094	-354.2966918945313	655.6735839843751	332.2700500488282	-327.3750915527344	578.7596435546876	327.1491394042969	-476.1101684570314	600.0244750976564	305.1620483398438	-513.0832519531251	543.6882324218751	301.7929687500001	-495.8279418945314	579.1030273437501	126.458480834961	-366.8752136230469	665.3101196289064	139.1345825195313	-437.3264160156251	
315	1.308333333333333	428.8391113281251	1140.394653320313	-321.9938659667969	538.1267089843751	1135.1552734375	-327.6506958007813	377.9477539062501	1106.577758789063	-108.5587310791016	623.9967041015626	1098.745361328125	-124.1905593872071	312.3471374511719	822.8311157226565	-151.8661193847657	328.0048828125001	818.8763427734377	-91.20510101318361	330.7052001953126	745.8547973632814	-120.3968811035157	356.4930114746094	741.6532592773439	-67.95664215087892	392.8784179687501	295.2736511230469	-186.5794067382813	392.4533081054689	280.7326049804688	-126.6748580932617	400.4214477539064	239.4052276611329	-171.0630187988282	412.9723510742189	226.6555633544922	-113.0949783325196	474.1602783203126	94.54073333740236	-227.4994201660157	503.4994506835939	56.56337356567384	-215.2141265869141	439.7394104003907	57.27142715454103	-226.1643524169922	510.5416259765626	74.13344573974611	-146.9439697265625	410.1015014648439	71.20800018310548	-169.6067504882813	491.832000732422	96.25271606445315	-93.07645416259767	484.4771118164064	81.51476287841798	-60.79933929443361	435.6312866210939	105.5711135864258	-58.72592926025392	394.1976318359376	48.6691360473633	-126.6912536621094	480.3225097656251	55.32548141479494	-6.475604534149172	425.5822143554689	72.08925628662111	1.421441316604614	370.0478515625001	45.80389022827149	-49.07968902587892	430.8731384277345	63.92982482910158	59.5782814025879	702.9293823242189	817.2598876953127	-157.0819702148438	714.2326660156251	822.744812011719	-97.55699157714847	712.8096923828126	743.6257324218751	-114.7787399291992	708.5546875000001	748.7700805664064	-54.18064117431642	658.9270629882814	430.4307861328126	-312.6872253417969	674.0935058593751	383.2430114746094	-292.9097290039063	656.8674316406251	380.6810302734376	-339.6250000000001	655.2816772460939	331.5803222656251	-312.0640869140626	578.4384155273439	324.2700805664063	-460.6624450683595	599.6592407226564	301.5531005859376	-497.3654174804689	543.3621215820314	298.4487609863282	-480.2384033203126	578.7390747070314	125.1664810180664	-348.2739562988282	665.1472778320314	136.9803314208985	-418.7147216796876	
316	1.3125	428.7061157226564	1141.989013671875	-315.4633789062501	538.0811157226564	1136.803833007813	-321.1970214843751	377.5949707031251	1107.723510742188	-102.2501831054688	623.5925903320314	1100.714233398438	-117.8027801513672	312.7009887695313	823.9959106445315	-147.2385406494141	327.9656982421876	818.6718750000002	-88.16433715820314	330.5204162597657	745.9974365234376	-117.6381149291992	356.4997863769532	741.6439819335939	-64.94088745117189	392.8843383789064	295.5045471191407	-186.2333374023438	392.4184875488282	280.8912353515626	-126.3789520263672	400.3494567871095	239.6481323242188	-170.8228607177735	412.8462829589845	226.8370513916016	-112.7555465698242	474.0916442871095	94.68728637695314	-227.4981536865235	503.4608154296876	56.72266006469728	-215.1670837402344	439.4791564941407	57.3600311279297	-226.299789428711	510.4767456054689	74.23730468750001	-146.935791015625	410.0539855957032	71.30915832519533	-169.6038970947266	491.8013305664064	96.31464385986331	-93.04011535644533	484.4682617187501	81.56954193115236	-60.78960418701173	435.5799560546876	105.5662384033203	-58.72330474853517	394.1657714843751	48.73851776123048	-126.6338882446289	480.2825927734376	55.30021286010744	-6.45604181289673	425.5676269531251	72.0219192504883	1.464699506759644	369.9484252929688	45.83344650268555	-49.06739807128908	430.8566894531251	63.83731079101564	59.61814498901369	704.2538452148439	819.6116333007815	-148.4572906494141	714.3117065429689	825.5983886718752	-88.41734313964845	712.8947143554689	746.2111206054689	-104.8560333251953	708.3995971679689	751.9364013671876	-44.31068801879884	658.5847778320314	429.6152648925782	-298.7205505371094	673.7214965820314	382.7174377441407	-278.3057556152344	656.4514160156251	379.5085144042969	-324.9999084472657	654.9082641601564	330.7935791015626	-296.6415405273438	578.0122680664064	320.9726562500001	-445.3239135742189	599.3462524414064	297.7333679199219	-481.5362548828126	542.9844970703126	294.7113342285157	-464.2971191406251	578.5704956054689	124.1096878051758	-329.3385314941407	664.9658203125001	134.6717681884766	-399.9212646484376	
317	1.316666666666667	428.5371398925782	1143.292114257813	-308.8809509277344	537.8809204101564	1138.390502929688	-314.5747985839844	377.3168640136719	1108.785400390625	-95.97175598144533	623.1192016601564	1102.603271484375	-111.3467636108399	312.6438293457032	824.9007568359377	-143.3719177246094	328.0506896972657	819.1687011718752	-83.78453826904298	330.6386718750001	746.8877563476564	-114.7818603515625	356.4746704101563	741.4826660156251	-62.01742553710939	392.8418884277345	296.0364379882813	-185.8375854492188	392.3146057128907	281.1454772949219	-126.0586700439453	400.3043823242189	239.9043579101563	-170.5823516845703	412.7420043945314	227.2330017089844	-112.5613250732422	474.0643005371095	94.88521575927736	-227.4564666748047	503.4592285156251	56.89436721801759	-215.1735839843751	439.8115844726564	57.38812637329103	-226.1360321044922	510.4426574707032	74.40166473388673	-146.9265289306641	410.0031127929689	71.43613433837892	-169.5879669189453	491.7857360839845	96.40368652343753	-92.98087310791017	484.4004516601564	81.64517211914064	-60.76831054687501	435.5032653808595	105.5996704101563	-58.70656585693361	394.1207275390626	48.77510070800783	-126.6293029785157	480.2453002929689	55.30583572387697	-6.425273418426515	425.5301513671876	71.96752166748048	1.474331021308899	369.9588928222657	45.75672149658204	-49.05643844604494	430.8311462402345	63.75464248657228	59.66080474853517	703.1878662109376	821.557800292969	-138.7834777832032	713.8837280273439	828.3504638671877	-79.50765991210939	712.9669189453126	748.7831420898439	-94.99430084228517	708.2389526367189	755.0781860351564	-34.54724502563477	658.2171630859376	428.6787109375001	-284.7887878417969	673.3792114257814	382.1065368652344	-263.6692199707032	656.0829467773439	378.1749877929688	-310.2832641601563	654.6154174804689	329.9603271484376	-281.1993103027344	577.5922851562501	317.4745788574219	-429.9827575683595	599.0820922851564	293.6722717285157	-465.6829223632814	542.7244873046876	290.9587707519532	-448.4673461914064	578.3645629882814	122.9937362670899	-310.1475830078126	664.8577270507814	132.2655029296875	-380.8371276855469	
